<?xml version="1.0" encoding="UTF-8" standalone="no"?>
<svg
   version="1.1"
   width="792pt"
   height="612pt"
   id="svg13"
   viewBox="0 0 792 612"
   sodipodi:docname="BRIGHT UNIVERSE FINAL.cdr"
   xmlns:inkscape="http://www.inkscape.org/namespaces/inkscape"
   xmlns:sodipodi="http://sodipodi.sourceforge.net/DTD/sodipodi-0.dtd"
   xmlns="http://www.w3.org/2000/svg"
   xmlns:svg="http://www.w3.org/2000/svg">
  <defs
     id="defs17" />
  <sodipodi:namedview
     id="namedview15"
     pagecolor="#ffffff"
     bordercolor="#000000"
     borderopacity="0.25"
     inkscape:showpageshadow="2"
     inkscape:pageopacity="0.0"
     inkscape:pagecheckerboard="0"
     inkscape:deskcolor="#d1d1d1"
     inkscape:document-units="pt" />
  <g
     id="Layer1000">
    <path
       d="m 22.1911,275.0427 c 0.5819,-2.8225 -0.2046,-24.1951 0.1533,-30.0889 0.5728,-9.4247 7.589,-14.0356 16.3229,-14.0283 l 22.6776,0.001 c 2.1314,-0.2528 9.9961,-8.373 12.575,-10.5252 1.3889,-1.1594 2.9231,-2.4216 4.2205,-3.5796 l 3.564,-3.1838 c 0.3951,-0.4089 0.2364,-0.1879 0.5648,-0.6322 -8.7757,-0.2254 -17.8031,-0.0207 -26.6083,-0.0233 -11.6351,-0.003 -23.3383,-1.5728 -32.8992,3.2883 -0.1944,0.0991 -0.8335,0.421 -1.1911,0.6082 l -1.181,0.6274 c -5.258,2.7577 -10.3663,8.6173 -12.8815,14.0039 -1.2349,2.6449 -3.0305,7.4462 -2.6675,10.8212 -0.5182,0.713 -0.9016,57.3149 -0.2877,62.251 l 0.374,-0.8492 c 0.6956,-0.9963 2.1799,-4.2533 2.7661,-5.4962 0.8791,-1.8637 2.032,-3.8305 3.0054,-5.4903 1.0983,-1.8732 6.0519,-9.5336 6.2693,-10.5277 z"
       style="fill:#01a5e5;fill-rule:evenodd"
       id="path2" />
    <path
       d="m 179.9251,185.5956 c 0.1843,-1.0437 0.9162,-1.0899 -2.4649,-1.0335 -32.0791,0.071 -64.156,0.067 -96.235,0.0554 1.3324,3.1601 19.6956,23.9861 20.1144,26.3684 -26.3687,22.2749 -45.5516,39.6836 -67.765,66.4439 -1.8325,1.2912 -10.2233,14.3476 -12.1562,17.5489 -14.6015,24.1798 -23.6292,54.287 -3.3491,78.1977 8.6031,10.1428 20.402,17.2139 32.7574,22.4777 6.4881,2.7643 15.2013,5.0363 17.8465,6.1575 l -1.7764,-0.8932 c -0.6868,-1.1329 -4.8013,-3.6754 -6.1221,-4.5928 -5.4805,-3.8057 -12.0051,-9.5488 -16.4656,-14.3309 -2.4409,-2.6171 -6.7988,-8.5641 -8.5383,-11.9985 -8.5478,-16.8741 -5.3961,-33.0353 4.4383,-47.7373 9.2542,-13.8338 17.8483,-21.5772 30.1585,-32.866 9.1781,-8.4166 21.6799,-16.3111 31.728,-23.8338 3.4744,-2.5997 8.2605,-5.8596 12.0484,-8.1403 l 16.5632,-10.2845 c 3.2089,5.0228 21.4774,27.7588 22.7159,28.4259 z"
       style="fill:#fdbb12;fill-rule:evenodd"
       id="path4" />
    <path
       d="m 167.3265,294.7926 0.003,-29.0347 c -3.2246,6.6582 -8.0973,23.8972 -9.3872,31.0317 -0.67,1.8955 -5.9153,-5.1564 -8.3402,-8.85 -0.4745,4.3254 -0.1001,39.0399 -0.1049,46.5891 -0.005,8.361 0.6358,14.1696 -4.0952,19.2991 -4.2945,4.6561 -10.8988,4.7646 -18.9207,4.376 -0.0718,-31.9931 -0.22,-63.9796 -0.2389,-95.9724 -4.1164,1.9275 -20.3129,13.4675 -21.8562,14.0746 -0.0116,27.2726 -0.009,54.5451 -0.009,81.8177 l -7.2361,0.1202 c -0.0222,-25.4526 0.051,-50.9076 -0.0539,-76.3594 -6.7634,3.2122 -21.7884,13.2999 -22.0892,21.3729 l 0.0404,54.8907 -7.3249,0.102 -0.0561,-52.1239 c -8.8388,6.1247 -22.0677,22.059 -22.0608,33.3587 0.0043,6.2026 0.0047,12.4067 -0.0095,18.6093 l -3.3528,0.1373 c 1.4384,8.141 7.0544,11.827 10.5561,17.7409 4.545,0.5815 63.3519,0.1354 73.3151,0.1354 8.581,0 14.3972,0.6012 21.9145,-2.6638 10.1631,-4.4139 19.2091,-14.8017 19.3191,-29.7113 0.1198,-16.2762 -0.307,-32.6883 -0.0124,-48.9401 z"
       style="fill:#0096d6;fill-rule:evenodd"
       id="path6" />
    <path
       d="m 257.4215,269.3265 c 3.9564,0 7.6828,0.7591 11.179,2.2771 3.4966,1.5182 6.5557,3.5883 9.1781,6.2107 2.622,2.6223 4.6692,5.7044 6.1415,9.2469 1.472,3.5421 2.2082,7.2915 2.2082,11.2481 0,7.1765 -2.4384,13.479 -7.3148,18.9077 4.8764,5.4286 7.3148,11.7771 7.3148,19.0457 0,3.9563 -0.7362,7.6827 -2.2082,11.179 -1.4723,3.4965 -3.5195,6.5557 -6.1415,9.178 -2.6224,2.6223 -5.6815,4.6925 -9.1781,6.2104 -3.4962,1.5182 -7.2226,2.2774 -11.179,2.2774 h -57.5512 l 9.6608,-19.1838 h 47.8904 c 2.6683,0 4.9224,-0.9431 6.7627,-2.8063 1.8402,-1.8862 2.7603,-4.1403 2.7603,-6.7856 0,-2.6452 -0.9201,-4.8764 -2.7603,-6.7167 -1.8403,-1.8172 -4.0944,-2.7371 -6.7627,-2.7371 h -57.5512 c -2.7604,0 -4.8076,0.644 -6.1418,1.9321 -1.334,1.2881 -2.2541,2.8982 -2.7601,4.8305 -0.506,1.9321 -0.7362,4.0252 -0.6903,6.2796 0.0462,2.2541 0.0692,4.3013 0.0692,6.1416 v 19.0457 h -19.1837 v -28.7068 c 0,-3.9563 0.7591,-7.6827 2.277,-11.179 1.5183,-3.4962 3.5654,-6.5327 6.1416,-9.1088 2.5764,-2.5761 5.6126,-4.6233 9.1088,-6.1416 3.4966,-1.5182 7.2227,-2.2773 11.1793,-2.2773 h 57.5512 c 2.6683,0 4.9224,-0.9201 6.7627,-2.7601 1.8402,-1.8403 2.7603,-4.0944 2.7603,-6.7626 0,-2.6683 -0.9201,-4.9456 -2.7603,-6.8318 -1.8403,-1.8862 -4.0944,-2.8293 -6.7627,-2.8293 h -76.5972 l -9.6607,-19.1837 z m 147.674,28.7067 c 0,3.9563 -0.7591,7.6828 -2.277,11.179 -1.5183,3.4963 -3.5655,6.5557 -6.1419,9.1778 -2.5761,2.6223 -5.6123,4.6924 -9.1088,6.2107 -3.4963,1.5182 -7.2227,2.2773 -11.179,2.2773 l 28.7067,38.2295 H 381.0813 L 352.3745,326.878 h -21.9438 c -2.6683,0 -4.9227,0.9199 -6.7629,2.7601 -1.84,1.8403 -2.7601,4.0944 -2.7601,6.7626 v 28.7068 h -19.1838 v -28.7068 c 0,-3.9563 0.7592,-7.6827 2.2771,-11.179 1.5182,-3.4962 3.5654,-6.5327 6.1416,-9.1088 2.5764,-2.5761 5.6125,-4.6233 9.1088,-6.1416 3.4965,-1.5182 7.2227,-2.2773 11.1793,-2.2773 h 45.9581 c 2.6682,0 4.9226,-0.9431 6.7626,-2.8293 1.8403,-1.8861 2.7604,-4.1632 2.7604,-6.8315 0,-2.6682 -0.9201,-4.9226 -2.7604,-6.7626 -1.84,-1.8402 -4.0944,-2.7604 -6.7626,-2.7604 h -65.1422 l -9.5227,-19.1837 h 74.6649 c 3.9563,0 7.6827,0.7591 11.179,2.2771 3.4965,1.5182 6.5327,3.5654 9.1088,6.1418 2.5764,2.5761 4.6236,5.6123 6.1419,9.1088 1.5179,3.4963 2.277,7.2227 2.277,11.179 z m 34.6414,-28.7067 v 95.781 h -19.184 v -95.781 z m 126.5578,67.0053 c 0,3.9564 -0.7591,7.7057 -2.2773,11.202 -1.518,3.5192 -3.5651,6.5557 -6.1416,9.1318 -2.5761,2.5764 -5.6123,4.6466 -9.1088,6.1645 -3.4963,1.5182 -7.2227,2.2774 -11.179,2.2774 h -47.8905 c -3.9563,0 -7.6827,-0.7592 -11.179,-2.2774 -3.4962,-1.5179 -6.5557,-3.5651 -9.178,-6.1415 -2.622,-2.5762 -4.6922,-5.6123 -6.2104,-9.1089 -1.5183,-3.4962 -2.2774,-7.2227 -2.2774,-11.179 v -38.3675 c 0,-3.9563 0.7591,-7.6827 2.2774,-11.179 1.5182,-3.4965 3.5884,-6.5327 6.2104,-9.1088 2.6223,-2.5764 5.6818,-4.6236 9.178,-6.1418 3.4963,-1.518 7.2227,-2.2771 11.179,-2.2771 h 66.9362 l 9.661,19.1837 h -76.5972 c -2.6682,0 -4.9453,0.9202 -6.8315,2.7604 -1.8862,1.84 -2.8292,4.0944 -2.8292,6.7626 v 38.3675 c 0,2.6683 0.943,4.9227 2.8292,6.7626 1.8862,1.8403 4.1633,2.7604 6.8315,2.7604 h 47.8905 c 2.6683,0 4.9224,-0.9201 6.7626,-2.7604 1.8403,-1.8399 2.7604,-4.0943 2.7604,-6.7626 V 326.74 h -57.4135 l 9.523,-19.1841 h 67.0742 z m 100.0596,-9.4538 h -57.2754 l 0.2761,-19.184 h 56.9993 v -38.3675 h 19.1838 v 95.781 h -19.1838 z m -63.7619,-57.5515 v 95.781 h -19.1841 v -95.781 z m 95.6429,0 h 76.873 l 9.523,19.1837 h -32.2951 v 76.5973 h -19.1837 v -76.5973 h -25.2564 z"
       style="fill:#fdbb12;fill-rule:evenodd"
       id="path8" />
    <path
       d="m 83.5577,380.6617 v 33.9245 h 27.6902 v -33.9245 h 9.7158 v 31.9139 c 0,3.8055 -0.7152,6.4097 -2.1456,7.7862 -1.4167,1.3898 -4.1697,2.0781 -8.2448,2.0781 H 84.1921 c -4.0348,0 -6.7606,-0.6883 -8.191,-2.0781 -1.444,-1.3765 -2.1591,-3.9807 -2.1591,-7.7862 v -31.9139 z m 90.0607,41.7782 v -41.7782 h 6.6393 l 29.4174,24.6269 c 0.9986,0.8098 1.8756,1.5789 2.6447,2.3077 0.7693,0.7287 1.4576,1.4708 2.0917,2.2399 -0.1483,-2.3479 -0.2563,-4.0076 -0.3104,-4.9793 -0.0539,-0.9851 -0.0808,-1.7272 -0.0808,-2.2536 v -21.9416 h 8.744 v 41.7782 h -6.639 l -30.6859,-25.8146 c -0.7288,-0.661 -1.3765,-1.2413 -1.9298,-1.7813 -0.5531,-0.5261 -1.0659,-1.0658 -1.5381,-1.6191 0.1213,1.2954 0.2293,2.5098 0.2968,3.657 0.0674,1.1469 0.0944,2.1455 0.0944,2.982 v 22.576 z m 101.8006,0 v -41.7782 h 9.7157 v 41.7782 z m 76.5394,0 -24.1546,-41.7782 h 11.1059 l 16.9217,30.2001 16.1254,-30.2001 h 9.6891 l -22.9671,41.7782 z m 72.3832,0 v -41.7782 h 42.7496 v 7.1249 h -33.0338 v 9.311 h 19.2699 v 7.1251 h -19.2699 v 10.3635 h 33.4389 v 7.8537 z m 123.8638,-34.5722 h -21.8471 v 11.6589 h 21.8471 c 1.6869,0 2.8338,-0.2429 3.4546,-0.7285 0.6208,-0.4995 0.9309,-1.3629 0.9309,-2.6045 v -5.0335 c 0,-1.2143 -0.3101,-2.0644 -0.9309,-2.5639 -0.6208,-0.4856 -1.7677,-0.7285 -3.4546,-0.7285 z m -31.401,34.5722 v -41.7782 h 35.7057 c 3.333,0 5.7484,0.6341 7.2329,1.9163 1.4979,1.2685 2.24,3.3196 2.24,6.1667 v 9.8238 c 0,2.8204 -0.7421,4.8716 -2.24,6.1534 -1.4845,1.2821 -3.8999,1.9298 -7.2329,1.9298 h -5.4515 l 19.3101,15.7882 h -13.953 l -16.8409,-15.7882 h -9.2165 v 15.7882 z M 649.264,387.9485 h -27.3666 v 8.9872 h 26.0575 c 4.1023,0 6.8551,0.7019 8.299,2.0917 1.444,1.4034 2.1592,3.9943 2.1592,7.7995 v 5.7487 c 0,3.7783 -0.7152,6.3828 -2.1592,7.7726 -1.4439,1.3901 -4.1967,2.0917 -8.299,2.0917 h -25.8145 c -4.0887,0 -6.855,-0.7016 -8.2854,-2.0917 -1.444,-1.3898 -2.1592,-3.9943 -2.1592,-7.7726 v -1.1469 l 8.5825,-1.7813 v 4.9388 h 29.5523 v -9.5539 h -26.0708 c -4.0618,0 -6.8012,-0.7016 -8.2315,-2.0917 -1.4171,-1.3898 -2.1322,-3.9807 -2.1322,-7.7726 v -4.6284 c 0,-3.7919 0.7151,-6.3827 2.1322,-7.7862 1.4303,-1.3901 4.1697,-2.0917 8.2315,-2.0917 h 23.7229 c 3.9268,0 6.639,0.6747 8.1235,2.0106 1.4978,1.3496 2.2399,3.7245 2.2399,7.1521 v 0.8771 l -8.5821,2.0242 z m 60.6566,34.4914 v -41.7782 h 42.7495 v 7.1249 h -33.0338 v 9.311 h 19.2699 v 7.1251 h -19.2699 v 10.3635 h 33.4389 v 7.8537 z"
       style="fill:#0096d6;fill-rule:evenodd"
       id="path10" />
  </g>
</svg>
